<svg version="1.1" id="Layer_1" xmlns="http://www.w3.org/2000/svg" xmlns:xlink="http://www.w3.org/1999/xlink" x="0px" y="0px"
	 width="100%" viewBox="0 0 500 499" enable-background="new 0 0 500 499" xml:space="preserve">
<path fill="#000000" opacity="1.000000" stroke="none" 
	d="
M285.000000,500.000000 
	C190.000015,500.000000 95.500046,500.000000 1.000051,500.000000 
	C1.000034,333.666718 1.000034,167.333450 1.000017,1.000140 
	C167.666565,1.000093 334.333130,1.000093 500.999756,1.000047 
	C500.999847,167.333191 500.999847,333.666382 500.999939,499.999786 
	C429.166656,500.000000 357.333344,500.000000 285.000000,500.000000 
M311.500000,219.005981 
	C303.166351,219.005981 294.832733,219.005981 286.499084,219.005981 
	C286.504089,219.247635 286.509094,219.489273 286.514099,219.730927 
	C314.923126,219.730927 343.332153,219.730927 371.741180,219.730927 
	C371.741730,219.489319 371.742249,219.247711 371.742767,219.006104 
	C351.995178,219.006104 332.247589,219.006104 311.500000,219.005981 
M320.500000,264.993622 
	C336.762054,264.993622 353.024139,264.993622 369.286194,264.993622 
	C369.284729,264.755096 369.283264,264.516571 369.281799,264.278046 
	C341.568573,264.278046 313.855347,264.278046 286.142120,264.278046 
	C286.140869,264.516602 286.139618,264.755127 286.138367,264.993683 
	C297.258911,264.993683 308.379456,264.993683 320.500000,264.993622 
M385.998444,85.502472 
	C385.998444,97.579597 385.998444,109.656731 385.998444,121.677094 
	C383.571594,121.901581 381.806274,122.064873 380.040955,122.228165 
	C380.079926,122.388428 380.118866,122.548683 380.157806,122.708946 
	C382.369385,122.708946 384.580933,122.708946 386.639343,122.708946 
	C386.639343,104.051651 386.639343,85.723862 386.639343,67.396065 
	C386.425629,67.396591 386.211884,67.397110 385.998169,67.397629 
	C385.998169,73.099762 385.998169,78.801888 385.998444,85.502472 
M385.986847,395.500000 
	C385.986847,404.622467 385.986847,413.744934 385.986847,422.867401 
	C386.235138,422.865387 386.483429,422.863403 386.731720,422.861389 
	C386.731720,403.009827 386.731720,383.158234 386.731720,363.306671 
	C386.482788,363.303101 386.233826,363.299561 385.984894,363.296021 
	C385.984894,373.697327 385.984894,384.098663 385.986847,395.500000 
M105.655342,423.971985 
	C107.741844,423.971985 109.828346,423.971985 111.914841,423.971985 
	C102.915192,422.458984 102.937653,422.459076 102.971092,413.104767 
	C103.001984,404.462830 102.977676,395.820679 102.977676,387.178589 
	C102.108833,398.294586 102.030563,409.400452 102.226181,420.501495 
	C102.246429,421.650299 103.896706,422.770355 105.655342,423.971985 
M101.999908,91.305344 
	C101.999908,93.476425 101.999908,95.647507 101.999908,97.818588 
	C103.010330,90.181915 103.167213,82.571968 102.950020,74.972725 
	C102.824760,70.590569 103.262131,67.120224 109.099091,67.572365 
	C102.290939,66.786583 102.030136,67.006958 102.007256,73.434502 
	C101.987183,79.076538 101.999222,84.718689 101.999908,91.305344 
z"/>
<path fill="#81817E" opacity="1.000000" stroke="none" 
	d="
M312.000000,219.006042 
	C332.247589,219.006104 351.995178,219.006104 371.742767,219.006104 
	C371.742249,219.247711 371.741730,219.489319 371.741180,219.730927 
	C343.332153,219.730927 314.923126,219.730927 286.514099,219.730927 
	C286.509094,219.489273 286.504089,219.247635 286.499084,219.005981 
	C294.832733,219.005981 303.166351,219.005981 312.000000,219.006042 
z"/>
<path fill="#4B4B49" opacity="1.000000" stroke="none" 
	d="
M320.000000,264.993652 
	C308.379456,264.993683 297.258911,264.993683 286.138367,264.993683 
	C286.139618,264.755127 286.140869,264.516602 286.142120,264.278046 
	C313.855347,264.278046 341.568573,264.278046 369.281799,264.278046 
	C369.283264,264.516571 369.284729,264.755096 369.286194,264.993622 
	C353.024139,264.993622 336.762054,264.993622 320.000000,264.993652 
z"/>
<path fill="#8F8D88" opacity="1.000000" stroke="none" 
	d="
M385.998291,85.003242 
	C385.998169,78.801888 385.998169,73.099762 385.998169,67.397629 
	C386.211884,67.397110 386.425629,67.396591 386.639343,67.396065 
	C386.639343,85.723862 386.639343,104.051651 386.639343,122.708946 
	C384.580933,122.708946 382.369385,122.708946 380.157806,122.708946 
	C380.118866,122.548683 380.079926,122.388428 380.040955,122.228165 
	C381.806274,122.064873 383.571594,121.901581 385.998444,121.677094 
	C385.998444,109.656731 385.998444,97.579597 385.998291,85.003242 
z"/>
<path fill="#8B8A83" opacity="1.000000" stroke="none" 
	d="
M385.985870,395.000000 
	C385.984894,384.098663 385.984894,373.697327 385.984894,363.296021 
	C386.233826,363.299561 386.482788,363.303101 386.731720,363.306671 
	C386.731720,383.158234 386.731720,403.009827 386.731720,422.861389 
	C386.483429,422.863403 386.235138,422.865387 385.986847,422.867401 
	C385.986847,413.744934 385.986847,404.622467 385.985870,395.000000 
z"/>
<path fill="#30302A" opacity="1.000000" stroke="none" 
	d="
M105.222992,423.937866 
	C103.896706,422.770355 102.246429,421.650299 102.226181,420.501495 
	C102.030563,409.400452 102.108833,398.294586 102.977676,387.178589 
	C102.977676,395.820679 103.001984,404.462830 102.971092,413.104767 
	C102.937653,422.459076 102.915192,422.458984 111.914841,423.971985 
	C109.828346,423.971985 107.741844,423.971985 105.222992,423.937866 
z"/>
<path fill="#312F2C" opacity="1.000000" stroke="none" 
	d="
M101.998489,90.833069 
	C101.999222,84.718689 101.987183,79.076538 102.007256,73.434502 
	C102.030136,67.006958 102.290939,66.786583 109.099091,67.572365 
	C103.262131,67.120224 102.824760,70.590569 102.950020,74.972725 
	C103.167213,82.571968 103.010330,90.181915 101.999908,97.818588 
	C101.999908,95.647507 101.999908,93.476425 101.998489,90.833069 
z"/>
</svg>